PathFileType	4	(X/Y/Z)	Walk7.trc
DataRate	CameraRate	NumFrames	NumMarkers	Units	OrigDataRate	OrigDataStartFrame	OrigNumFrames
200.000000	200.000000	6	55	mm	200.000000	479	591
Frame#	Times		RFA1		RASI		RUA1		RACR1		RBHD		C7		LFA1		RTH2		RCAR		RTH3		RBack		RElbow		RTB3		RTB1		LElbowM		RMT1		RMT5		RLFC		LTH2		RTB2		RTH4		LTH3		LACR1		RTB4		LElbow		LPSI		RMMAL		LWRU		CLAV		LTH4		RWRR		RPSI		LBHD		LTB1		T10		LLFC		RToe		LFHD		RWRU		LTB3		RTH1		LTB2		LTB4		LMT1		LTH1		LCAL		LMT5		LWRR		LLMAL		RElbowM		RLMAL		LToe		RCAL		LUA1		LCAR
			X1	Y1	Z1	X2	Y2	Z2	X3	Y3	Z3	X4	Y4	Z4	X5	Y5	Z5	X6	Y6	Z6	X7	Y7	Z7	X8	Y8	Z8	X9	Y9	Z9	X10	Y10	Z10	X11	Y11	Z11	X12	Y12	Z12	X13	Y13	Z13	X14	Y14	Z14	X15	Y15	Z15	X16	Y16	Z16	X17	Y17	Z17	X18	Y18	Z18	X19	Y19	Z19	X20	Y20	Z20	X21	Y21	Z21	X22	Y22	Z22	X23	Y23	Z23	X24	Y24	Z24	X25	Y25	Z25	X26	Y26	Z26	X27	Y27	Z27	X28	Y28	Z28	X29	Y29	Z29	X30	Y30	Z30	X31	Y31	Z31	X32	Y32	Z32	X33	Y33	Z33	X34	Y34	Z34	X35	Y35	Z35	X36	Y36	Z36	X37	Y37	Z37	X38	Y38	Z38	X39	Y39	Z39	X40	Y40	Z40	X41	Y41	Z41	X42	Y42	Z42	X43	Y43	Z43	X44	Y44	Z44	X45	Y45	Z45	X46	Y46	Z46	X47	Y47	Z47	X48	Y48	Z48	X49	Y49	Z49	X50	Y50	Z50	X51	Y51	Z51	X52	Y52	Z52	X53	Y53	Z53	X54	Y54	Z54	X55	Y55	Z55

479	2.395	551.05	941.2	544.38	723.93	928.38	398.38	614.21	1201.3	495.77	698.66	1381	421.27	692.46	1569.2	351.76	645.08	1433.4	270.62	728.08	1004.2	-61.105	807	674.67	417.32	545.58	753.21	550.23	787.2	558.44	435.35	563.88	1344.2	354.74	542.54	1087.6	514.95	943.14	212.73	354.21	894.13	396.59	343.07	584.63	1105.8	43.755	1075.8	86.338	322.24	1050.1	76.711	403.02	828.71	470.77	419.17	704.8	634.07	111.77	903.19	304.34	421.18	747.13	643.98	449.09	621.35	557.82	82.218	689.03	1426.3	98.425	919.81	307.47	350.69	608.19	1113.6	-34.626	549.68	955.24	192.21	941.51	116.52	311.83	744.46	886.08	-55.338	777.22	1347.1	260.2	641.63	644.27	67.629	586.66	800.51	513.82	544.46	952.37	297.23	677.35	1571.6	213.36	587.72	348.04	162.52	541.41	1126	247.61	577.39	444.18	99.403	1113.8	111.71	349.47	863.02	1584.2	217.84	514.17	813.95	538.02	513.29	178.85	179.93	706.54	729.8	454.2	524.67	268.09	103.94	548.24	264	171.59	569.55	33.781	228.18	664.26	738.2	60.406	357.21	43.504	201.77	538.73	30.495	137.87	808.02	922.37	-18.848	412.96	79.901	155.58	526.55	1066.7	421.09	917.13	96.881	397.5	618.4	24.661	212.93	887.42	34.856	355.73	644.75	1240.9	-9.4885	826.89	873.7	-67.954
480	2.4	555.3	940.41	544.67	730.66	927.16	399.02	620.03	1200.1	496.41	705.04	1379.5	421.97	698.87	1567.8	353.06	651.63	1432.2	271.43	736.52	1004.1	-60.724	812.62	673.11	417.56	548.87	752.16	550.43	793.26	556.91	435.63	570.13	1343.1	355.41	547.59	1086.8	514.87	954.04	213.61	354.77	902.18	396.65	343.37	592.26	1104.8	43.966	1088.9	89.472	322.11	1063.8	79.255	403.2	835.7	470.27	419.41	709.76	632.9	112.11	913.14	304.86	421.7	752.79	642.37	449.06	625.38	557.21	82.907	696.03	1425.3	99.339	929.24	308.02	351.11	615.93	1112.5	-34.308	556.08	953.84	193.28	953.72	117.41	312.54	753.53	885.99	-55.022	783.74	1345.8	261.12	646.65	643.68	68.061	590.15	800.03	514.68	551.13	950.99	298.07	683.74	1570.1	214.92	590.41	347.54	162.82	547.9	1124.8	248.11	581.48	443.66	99.816	1126.4	115.2	349.03	869.2	1583.2	219.16	517.83	813.18	537.92	514.19	178.83	180.08	712.48	727.78	454.83	526.74	268.11	104.2	550.39	263.63	171.86	569.59	33.773	228.23	670.08	736.93	61.172	357.4	44.735	201.71	538.73	30.49	137.89	817.04	922.58	-18.511	413.35	80.834	155.57	532.01	1065.9	421.16	930.33	97.344	398.29	618.4	24.629	213.06	901.33	34.582	357.08	652.19	1240.2	-9.2721	836.02	874.28	-67.488
481	2.405	559.66	939.5	545.08	737.66	926.01	399.51	625.78	1198.9	496.97	711.29	1378.2	422.8	705.32	1566.1	354.13	658.32	1430.9	271.95	744.6	1003.8	-60.343	818.78	671.76	417.58	552.15	751.2	550.62	799.56	555.57	435.82	576.37	1341.8	355.98	553.01	1085.7	515.13	964.24	214.41	355.27	909.97	396.67	343.87	599.7	1103.9	44.163	1101	92.267	322.05	1076.4	81.332	403.1	842.97	469.87	419.76	714.7	631.76	112.6	922.7	305.13	422.35	758.81	640.99	449.38	629.85	556.69	83.279	702.97	1424.2	100.12	938.38	308.39	351.7	623.32	1111.7	-33.951	562.35	952.71	193.94	965.43	118.19	313.17	762.36	885.88	-54.533	790.32	1344.5	262.07	651.34	642.88	68.587	593.66	799.08	515.5	557.96	949.7	299.08	689.87	1569	215.67	593.14	346.89	163	554.57	1123.8	248.55	585.7	443.12	100.12	1138.5	118.35	348.77	875.49	1582.1	220.23	521.4	812.29	538.3	515.37	179.01	180.25	718.56	726.19	455.29	528.84	268.11	104.37	552.37	263.33	172.16	569.65	33.851	228.23	675.66	736.12	61.884	357.51	46.325	201.95	538.71	30.487	137.9	825.77	922.88	-18.064	413.68	81.806	155.53	537.43	1065	421.23	942.55	97.659	398.82	618.42	24.59	213.11	914.42	34.451	357.78	659.32	1239.3	-8.5672	845.19	874.83	-66.873
482	2.41	564.14	938.51	545.45	744.7	924.93	399.91	631.57	1197.8	497.32	717.59	1376.8	423.63	711.64	1564.5	355.23	664.72	1429.7	272.73	752.67	1003.5	-59.992	825.24	670.72	417.68	555.53	750.21	551.16	806.24	554.54	435.96	582.83	1340.4	356.5	558.3	1084.8	515.36	974.18	214.91	355.72	917.87	396.61	344.28	607.18	1102.9	44.451	1112.2	94.724	322.11	1088.1	82.89	403.11	850.31	469.46	420.01	719.62	630.71	112.91	931.52	305.32	422.82	765.76	639.65	450.25	634.16	556.18	83.743	709.93	1423.1	100.97	947.18	308.68	352.06	630.61	1110.9	-33.844	568.84	951.27	195.02	976.49	118.73	313.55	771.06	885.57	-53.982	796.9	1343.3	262.79	656.26	642.24	69.203	597.66	798.01	516.44	564.88	948.64	299.97	696.43	1567.8	217.48	596.2	346.33	163.41	560.95	1122.4	249.22	589.41	443.09	100.45	1149.9	121.12	348.36	881.88	1581.3	221.38	525.24	811.42	538.45	517.08	179.23	180.23	725.03	724.9	455.82	530.87	268.29	104.66	554.7	263.17	172.35	569.74	33.881	228.2	681.31	735.34	62.223	357.77	47.59	201.84	538.64	30.493	137.92	834.43	923.22	-17.572	414.05	82.816	155.53	543.02	1063.9	421.42	953.8	98.029	398.97	618.45	24.49	213.19	926.42	34.418	357.88	666.8	1238.2	-7.9966	854.05	875.2	-66.668
483	2.415	568.76	937.58	545.81	751.71	923.79	400.51	637.09	1196.4	497.84	723.77	1375.5	424.58	717.97	1563.2	356.36	671.08	1428.5	273.62	760.76	1003.2	-59.571	831.98	669.96	417.65	559.3	749.24	551.61	813.5	553.71	436.28	589.57	1339	356.91	563.51	1083.6	515.79	983.54	215.13	355.97	925.7	396.48	345.13	614.69	1101.6	45.005	1122.6	96.745	322.21	1098.9	84.305	402.92	857.94	468.95	420.44	724.94	629.51	113.14	940.25	305.11	423.4	773.03	638.74	450.95	638.84	555.72	84.272	716.9	1422.2	101.87	955.82	308.8	352.55	638.06	1109.9	-33.805	575.63	949.81	196.32	986.84	119.31	313.75	779.99	885.43	-53.497	803.71	1342.2	263.9	661.55	641.63	69.612	601.77	797.48	517.26	571.34	947.18	301.19	702.63	1566.3	218.37	599.34	345.75	163.72	567.46	1121.3	249.83	592.63	443.04	100.83	1160.5	123.5	348.18	888.31	1580.3	222.7	529.31	810.82	539	518.58	179.39	180.23	731.91	724.18	456.4	533	268.56	104.87	556.75	263	172.56	569.81	33.946	228.21	686.79	734.53	62.435	358.29	49.002	201.8	538.59	30.502	138	842.9	923.42	-17.163	414.53	84.015	155.63	548.46	1062.9	421.75	964.34	98.122	398.91	618.5	24.371	213.2	937.65	33.962	357.54	674.18	1237.1	-7.283	862.68	875.57	-66.227
484	2.42	573.48	936.48	546.23	758.63	922.68	401.09	642.73	1195.3	498.47	730.12	1374.3	425.32	724.22	1561.7	357.59	677.81	1427.2	274.58	768.7	1002.7	-59.17	839.01	669.45	417.38	563.32	748.41	551.85	821.38	553.36	436.61	595.89	1337.7	357.58	569.15	1082.5	516.01	992.45	215.33	356.19	933.54	396.22	345.73	622.18	1100.5	45.249	1132.4	98.481	322.09	1108.8	84.951	402.66	865.43	468.33	420.79	730.3	628.6	113.29	948.85	304.83	423.63	780.52	638.17	451.96	643.69	555.26	84.639	724.11	1421.1	102.67	964.16	308.56	353.1	645.65	1108.8	-33.367	582.34	948.39	197.21	996.57	119.66	313.77	788.85	885.19	-53.148	810.33	1340.9	264.75	666.67	640.88	70.183	605.94	796.47	518	577.81	945.91	301.97	708.79	1565.3	218.93	602.31	345.23	164.01	574.25	1120	250.44	596.38	442.88	101.25	1170	125.13	348.33	894.57	1579.3	224.06	533.61	810	539.62	519.82	179.59	180.54	739.02	723.36	457.26	535.35	268.8	105.15	559.19	262.98	172.74	569.91	34.115	228.22	692.51	733.73	62.721	358.49	50.727	201.8	538.59	30.514	138.07	851.24	923.41	-16.655	415.18	85.307	155.77	553.98	1061.9	421.9	974.03	97.454	398.88	618.55	24.305	213.26	948.11	33.152	357.06	681.53	1236.3	-6.5232	871.43	875.94	-65.712
